<svg xmlns="http://www.w3.org/2000/svg" xmlns:xlink="http://www.w3.org/1999/xlink" width="1148" height="668" viewBox="0 0 1148 668"><defs><style>.a,.e,.g{fill:none;}.b{fill:#fff;}.c{clip-path:url(#a);}.d{fill:url(#b);}.e,.g{stroke:#707070;stroke-miterlimit:10;opacity:0.24;}.e{mix-blend-mode:multiply;isolation:isolate;}.f{fill:url(#c);}</style><clipPath id="a"><rect class="a" width="1148" height="668" rx="10"/></clipPath><linearGradient id="b" x1="0.351" y1="0.5" x2="0.786" y2="0.5" gradientUnits="objectBoundingBox"><stop offset="0" stop-color="#7d0754"/><stop offset="1" stop-color="#ee0732"/></linearGradient><linearGradient id="c" x1="1" y1="0.5" x2="0" y2="0.5" gradientUnits="objectBoundingBox"><stop offset="0" stop-color="#fff"/><stop offset="1" stop-color="#d1dbf6"/></linearGradient></defs><rect class="b" width="1148" height="668" rx="10"/><g class="c"><g transform="translate(-782.907 -817.584)"><g transform="translate(0 800.284)"><path class="d" d="M2020.237,536.3,1173.488-147.276c-44.93-36.272-117.777-36.272-162.707,0L163.356,536.848c-39.86,32.179-11.615,87.2,44.755,87.181l1767.42-.546C2031.877,623.465,2060.081,568.467,2020.237,536.3Z" transform="translate(-144.701 475.362)"/><path class="e" d="M1889.082,416.892c0,143.746-116.945,260.692-260.694,260.692S1367.7,560.637,1367.7,416.892V157.284h136.651v81.552h-54.7V416.892c0,98.56,80.184,178.748,178.742,178.748s178.747-80.187,178.747-178.748V238.836h-54.7V157.284h136.651Z" transform="translate(-584.955 -157.284)"/></g><g transform="translate(511.406 -45)"><path class="f" d="M-561.86-1322.163l2157.954-.667c68.825-.022,103.312,67.156,54.644,106.445L616.064-381.1c-54.859,44.287-143.8,44.287-198.661,0L-616.446-1215.718C-665.093-1254.991-630.657-1322.142-561.86-1322.163Z" transform="translate(583.962 1335.83)"/><path class="g" d="M-780.385-1006.353l2157.954-.668c68.825-.021,103.311,67.156,54.645,106.445L397.54-65.286C342.681-21,253.737-21,198.879-65.286L-834.97-899.908C-883.617-939.181-849.181-1006.332-780.385-1006.353Z" transform="translate(795.747 1196.177)"/></g></g></g></svg>